<mxfile host="app.diagrams.net" modified="2020-09-24T12:35:16.911Z" agent="5.0 (Macintosh; Intel Mac OS X 10_15_3) AppleWebKit/537.36 (KHTML, like Gecko) Chrome/85.0.4183.102 Safari/537.36" etag="5LtsjLTdsRNqHwhVUmq2" version="13.7.5" type="github">
  <diagram id="L1JHUYxiwmk380S7T3ll" name="Page-1">
    <mxGraphModel dx="1298" dy="687" grid="1" gridSize="10" guides="1" tooltips="1" connect="1" arrows="1" fold="1" page="1" pageScale="1" pageWidth="827" pageHeight="800" math="0" shadow="0">
      <root>
        <mxCell id="0" />
        <mxCell id="1" parent="0" />
        <mxCell id="by5zGwj_V78DvYOfpUZz-2" value="" style="rounded=0;whiteSpace=wrap;html=1;fillColor=#f5f5f5;strokeColor=#666666;fontColor=#333333;" vertex="1" parent="1">
          <mxGeometry x="334" y="30" width="160" height="650" as="geometry" />
        </mxCell>
        <mxCell id="by5zGwj_V78DvYOfpUZz-1" value="" style="rounded=0;whiteSpace=wrap;html=1;fillColor=#d5e8d4;strokeColor=#82b366;" vertex="1" parent="1">
          <mxGeometry x="334" y="237.5" width="160" height="235" as="geometry" />
        </mxCell>
        <mxCell id="by5zGwj_V78DvYOfpUZz-3" value="&lt;font style=&quot;font-size: 18px&quot;&gt;虚拟列表&lt;br&gt;（渲染区域）&lt;br&gt;&lt;/font&gt;" style="rounded=0;whiteSpace=wrap;html=1;fillColor=#dae8fc;strokeColor=#6c8ebf;" vertex="1" parent="1">
          <mxGeometry x="356" y="195" width="116" height="320" as="geometry" />
        </mxCell>
        <mxCell id="by5zGwj_V78DvYOfpUZz-5" value="" style="shape=crossbar;whiteSpace=wrap;html=1;rounded=1;fillColor=none;rotation=-90;" vertex="1" parent="1">
          <mxGeometry x="335" y="103" width="158" height="20" as="geometry" />
        </mxCell>
        <mxCell id="by5zGwj_V78DvYOfpUZz-6" value="ScrollTop" style="text;html=1;strokeColor=none;fillColor=none;align=center;verticalAlign=middle;whiteSpace=wrap;rounded=0;strokeWidth=4;fontSize=16;" vertex="1" parent="1">
          <mxGeometry x="420" y="103" width="60" height="27" as="geometry" />
        </mxCell>
        <mxCell id="by5zGwj_V78DvYOfpUZz-7" value="" style="shape=curlyBracket;whiteSpace=wrap;html=1;rounded=1;fillColor=none;" vertex="1" parent="1">
          <mxGeometry x="280" y="30" width="20" height="650" as="geometry" />
        </mxCell>
        <mxCell id="by5zGwj_V78DvYOfpUZz-8" value="&lt;font style=&quot;font-size: 20px&quot;&gt;页面真实高度&lt;/font&gt;" style="text;html=1;align=center;verticalAlign=middle;resizable=0;points=[];autosize=1;" vertex="1" parent="1">
          <mxGeometry x="140" y="345" width="140" height="20" as="geometry" />
        </mxCell>
        <mxCell id="by5zGwj_V78DvYOfpUZz-9" value="" style="shape=curlyBracket;whiteSpace=wrap;html=1;rounded=1;strokeWidth=4;fillColor=none;fontSize=16;rotation=-180;" vertex="1" parent="1">
          <mxGeometry x="510" y="242.5" width="20" height="230" as="geometry" />
        </mxCell>
        <mxCell id="by5zGwj_V78DvYOfpUZz-10" value="&lt;span style=&quot;font-size: 20px&quot;&gt;可视区域&lt;/span&gt;" style="text;html=1;align=center;verticalAlign=middle;resizable=0;points=[];autosize=1;" vertex="1" parent="1">
          <mxGeometry x="530" y="347.5" width="100" height="20" as="geometry" />
        </mxCell>
      </root>
    </mxGraphModel>
  </diagram>
</mxfile>
